# xmcd
#
# Track frame offsets:
#	150
#	15467
#	31237
#	41998
#	55712
#	69366
#	80882
#	96236
#	111634
#	123331
#	138235
#	149627
#	164947
#	180221
#	190953
#	202451
#
# Disc length: 2870 seconds
#
# Revision: 0
# Processed by: cddbd v1.5.2PL0 Copyright (c) Steve Scherf et al.
# Submitted via: EasyCDDAExtractor 16.0.6.1
#
DISCID=f60b3410
DTITLE=Πουλόπουλος Γιάννης - Ενενήντα έξι μεγ. επιτυχίες-Γ. Πουλόπουλος 1
DYEAR=2010
DGENRE=Ποικίλη
TTITLE0=Το άγαλμα [Μ. Πλέσσας-Λ. Παπαδόπουλος]
TTITLE1=Θα πιώ απόψε το φεγγάρι [Μ. Πλέσσας-Λ. Παπαδόπουλος]
TTITLE2=Καράβια, αλήτες [Μ. Λοΐζος-Φώντας Λάδης]
TTITLE3=Θά 'θελα νά 'χα [Γ. Πουλόπουλος]
TTITLE4=Αγάπα με (abrazame)[I. Iglesias-R. Ferro, απ. Πυθαγόρας]
TTITLE5=Ήρθες εψές [Γ. Σπανός-Σωτ. Σκίπης]
TTITLE6=Τι όμορφη που είσαι, όταν κλαις [Σ. Χρυσίνης-Χρ. Κολοκοτρώνης]
TTITLE7=Το τραγούδι της ξενητειάς [Μ. Θεοδωράκης-Ε. Θαλασσινός]
TTITLE8=Απόψε κλαίει ο ουρανός [Μ. Πλέσσας-Κ. Πρετεντέρης]
TTITLE9=Με το βουνό θα γίνω φίλος [Λ. Νταράλας-Βαγγ. Πρέκας]
TTITLE10=Τίποτα [Γ. Σπανός-Τασ. Θωμαΐδου]
TTITLE11=Γωνιά, γωνιά [Μ. Θεοδωράκης-Δ. Χριστοδούλου]
TTITLE12=Το άδειο σπίτι [Γ. Σπανός-Ά. Δασκαλόπουλος]
TTITLE13=Ήταν το ποτάμι μακρύ [Γ. Πουλόπουλος]
TTITLE14=Μαρία [Νίκος Σκεμπρής-Διον. Τζεφρώνης]
TTITLE15=Ένα μαχαίρι [Λ. Κόκοτος-Ά. Δασκαλόπουλος]
EXTD=
EXTT0=
EXTT1=
EXTT2=
EXTT3=
EXTT4=
EXTT5=
EXTT6=
EXTT7=
EXTT8=
EXTT9=
EXTT10=
EXTT11=
EXTT12=
EXTT13=
EXTT14=
EXTT15=
PLAYORDER=
